<svg xmlns="http://www.w3.org/2000/svg" viewBox="0 0 1440 320"><path fill="#8A2BE2" fill-opacity="1" d="M0,96L20,112C40,128,80,160,120,160C160,160,200,128,240,96C280,64,320,32,360,53.3C400,75,440,149,480,170.7C520,192,560,160,600,149.3C640,139,680,149,720,176C760,203,800,245,840,245.3C880,245,920,203,960,160C1000,117,1040,75,1080,85.3C1120,96,1160,160,1200,186.7C1240,213,1280,203,1320,192C1360,181,1400,171,1420,165.3L1440,160L1440,320L1420,320C1400,320,1360,320,1320,320C1280,320,1240,320,1200,320C1160,320,1120,320,1080,320C1040,320,1000,320,960,320C920,320,880,320,840,320C800,320,760,320,720,320C680,320,640,320,600,320C560,320,520,320,480,320C440,320,400,320,360,320C320,320,280,320,240,320C200,320,160,320,120,320C80,320,40,320,20,320L0,320Z"></path></svg>